<svg xmlns="http://www.w3.org/2000/svg" width="172.015" height="167.421" viewBox="0 0 172.015 167.421">
  <g>
    <path d="M65.127,167.184c-12.252-.5-27.233-5.516-36.69-13.407C14.455,141.659,7.373,126.132,3.667,108.3-.751,91.078-2.074,72.312,4.811,55.547c4.879-13.094,15.083-23.131,25.868-31.6C40.665,13.812,54.7,7.671,68.35,4.751c20.832-3.539,25.913-9.051,47.571.881A82.621,82.621,0,0,1,134,16.532a66.459,66.459,0,0,1,18.176,13.511,80.462,80.462,0,0,1,17.7,29.739c3.367,11.828,2.544,24.478-.849,36.18-1.675,6.513-2.474,13.169-3.76,19.753-2.3,8.876-5,17.962-10.336,25.536-10.889,13.975-28.037,23.107-45.418,25.276-10.068.891-20.162.733-30.262.817-4.9.129-9.842.113-14.73-.187Zm39.1-7.4c15.764-3.908,29.633-13.174,41.215-24.353,6.891-6.776,11.544-15.4,15.467-24.146,3.7-8.2,4.45-17.066,5.109-25.89.321-10.322-.139-20.924-3.112-30.869-4.895-12.858-15.556-22.305-27.4-28.769-7.235-4.145-15-7.248-22.407-11.054C101.2,9.711,87.625,9.519,75.358,13.3A146.236,146.236,0,0,0,46.764,24.211c-4.382,1.856-7.607,5.325-10.543,8.969-18.435,24.353-30.6,57.741-18.845,87.549,5.2,14.517,13.962,23,27.806,29.377C60.949,158.658,86.542,162.722,104.223,159.784Z" fill="#47ab5a"/>
    <path d="M147.529,65.66c.449,2.761.617,6.226-1.328,8.453-1.246,1.242-3.152.976-4.762.965-14.722-.52-27.976-8.672-42.6-9.774-7.973-.9-15.727.465-23.606,1.383-7.73,1-15.406,2.414-23.082,3.774-4.453.66-8.879,2.875-13.43,1.929a8.358,8.358,0,0,1-5.894-9.847c.066-.243.144-.481.23-.715a2.791,2.791,0,0,1,.274-1.969,31,31,0,0,1,11.234-8.75c.035-.016.067-.027.1-.043a5.665,5.665,0,0,1,2.578-1.676c4.7-2.316,9.949-2.531,15-3.551,6.367-1.23,12.813-2.347,19.32-2.14,4.848.152,9.672.679,14.489,1.222,5.336.711,10.613,1.813,15.972,2.356,7.6.559,15.3,1.465,22.231,4.863C140.142,54.707,145.99,59.1,147.529,65.66Z" fill="#47ab5a"/>
    <path d="M135.549,91.277c6.066,7.508.367,12.187-7.8,11.476-6.555-.253-12.383-3.722-18.555-5.593-11.422-5.117-21.883-5.59-34.082-3.348-4.234.691-8.488,1.258-12.4,2-4.332.789-8.723,1.231-13.106,1.676-2.617.215-5.617.469-7.777-1.316a6.653,6.653,0,0,1-.547-9.86c2.891-3.027,6.934-4.648,10.742-6.2,6.1-2.379,12.52-3.789,18.848-5.414C76.74,73.3,82.818,73.285,88.814,73.39a72.946,72.946,0,0,1,31.426,6.742C125.869,82.972,131.576,86.273,135.549,91.277Z" fill="#47ab5a"/>
    <path d="M122.068,111.843c4.266,4.446,5.4,11.688-2.9,11.051-4.731-.449-9.106-2.711-13.367-4.641-4.032-1.4-8.043-3.062-12.379-3.105-4.539.074-9.071.461-13.6.805-5.856.492-11.715,1.008-17.586,1.359-4.629.391-16.352,2.024-12.75-6.055,3.3-6.507,14.121-8.254,20.7-9.273,5.934-.981,11.535-2.086,17.5-1.949a70.007,70.007,0,0,1,22.777,4.086A32.09,32.09,0,0,1,122.068,111.843Z" fill="#47ab5a"/>
    <path d="M36.288,70.644a9.435,9.435,0,0,1-4.855-9.487c.673-2.624,2.555-4.293,4.457-6.013,1.98-1.637,3.88-3.888,6.144-4.959a41.222,41.222,0,0,1,14.391-4.332,66.382,66.382,0,0,1,16.066-1.76c2.279.089,4.518.556,6.773.669a3.046,3.046,0,0,1,2.157.526c.287.225.714.531.3.957-.3.331-.737.2-1.094.192-1-.043-2.194-.083-3.164-.144-6.833-.264-13.829-.039-20,3.241-6.357,2.642-13.948,3.552-18.761,8.934a10.467,10.467,0,0,0-3.054,4.787c-.146.722-.181,1.512.52,1.939.926,1.286,2.6,2.375,2.765,4.032C39.022,70.793,37.559,71.371,36.288,70.644Z" fill="#47ab5a"/>
  </g>
</svg>
